# xmcd CD database file
#
# Track frame offsets:
#	150
#	27200
#	38743
#	64779
#	88544
#	102506
#	127173
#	165569
#	183502
#	225655
#
# Disc length: 3490 seconds
#
# Revision: 0
# Processed by: cddbd v1.5.1PL2 Copyright (c) Steve Scherf et al.
# Submitted via: CDex 1.51
#
DISCID=7f0da00a
DTITLE=Stratoblasters - The Red Team - Live at Froggy Bottoms
DYEAR=2006
DGENRE=Blues
TTITLE0=Lightnin'
TTITLE1=The Way You Do The Things You Do
TTITLE2=Crosscut Saw
TTITLE3=Palace of the King
TTITLE4=I've Been Loving You
TTITLE5=She Caught the Katy
TTITLE6=Beautician Blues - T-Bone Shuffle
TTITLE7=Willin'
TTITLE8=Big Leg Woman
TTITLE9=Sweet Home Chicago
EXTD=YEAR: 2006
EXTT0=
EXTT1=
EXTT2=
EXTT3=
EXTT4=
EXTT5=
EXTT6=
EXTT7=
EXTT8=
EXTT9=
PLAYORDER=
